<svg width="273" height="36" viewBox="0 0 273 36" fill="none" xmlns="http://www.w3.org/2000/svg">
<path d="M8.49882 2.29L9.66081 2.682C9.54881 2.892 9.54882 2.892 9.31082 3.494C8.35882 5.902 7.39281 7.582 6.11881 9.01C4.74681 10.578 3.17881 11.712 0.840815 12.888C0.616815 12.454 0.504816 12.3 0.126816 11.908C3.29082 10.564 5.41881 8.716 7.02881 5.874C7.77081 4.558 8.37282 3.088 8.49882 2.29Z" fill="white" style="mix-blend-mode:screen"/>
<path d="M15.5968 3.48V2.402C16.0028 2.486 16.2828 2.5 17.0668 2.5H21.7428C22.5268 2.5 22.8068 2.486 23.2128 2.402V3.48C22.8348 3.424 22.4988 3.41 21.7568 3.41H17.0528C16.3108 3.41 15.9748 3.424 15.5968 3.48ZM14.3928 6.7V5.65C14.8968 5.72 15.1908 5.734 16.0308 5.734H23.2128C23.7308 5.734 23.8848 5.72 24.1228 5.636L24.6408 6.238C24.5148 6.434 24.4868 6.504 24.2488 7.12C23.0588 10.382 21.1268 12.174 17.5008 13.392C17.3328 12.986 17.2348 12.832 16.8988 12.426C18.7748 11.894 20.0068 11.264 21.0568 10.298C22.0508 9.388 22.6808 8.352 23.3248 6.63H16.0168C15.2748 6.63 14.8688 6.644 14.3928 6.7Z" fill="white" style="mix-blend-mode:screen"/>
<path d="M38.6575 12.244L37.8596 13.126C36.7536 11.712 35.1715 10.186 33.3795 8.8C32.3995 9.92 31.7135 10.564 30.7055 11.306C29.7395 12.006 28.9975 12.468 27.9615 12.986C27.7375 12.566 27.6255 12.412 27.2755 12.062C28.3535 11.628 29.0395 11.25 30.1175 10.452C32.3575 8.8 34.0935 6.588 35.1155 4.138C35.1435 4.054 35.1575 4.04 35.1855 3.97C35.2135 3.928 35.2135 3.914 35.2275 3.872C35.1015 3.886 35.0595 3.886 34.8915 3.886L30.2155 3.956C29.5855 3.97 29.1795 3.998 28.7735 4.068L28.7455 2.934C29.1235 2.99 29.3755 3.004 29.8515 3.004C29.8935 3.004 30.0195 3.004 30.2155 3.004L35.2135 2.948C35.7035 2.934 35.8716 2.92 36.1096 2.836L36.6975 3.438C36.5575 3.606 36.4595 3.774 36.3055 4.124C35.5215 5.86 34.8635 6.966 33.9955 8.044C35.8295 9.444 37.0615 10.55 38.6575 12.244Z" fill="white" style="mix-blend-mode:screen"/>
<path d="M45.4615 5.776L45.4895 4.796C46.1755 4.964 46.7775 5.02 48.0095 5.02C48.5555 5.02 48.9335 5.006 49.5075 4.978C49.4935 3.662 49.4935 3.662 49.4935 2.598C49.4935 2.36 49.4795 2.164 49.4515 2.024H50.5015C50.4315 2.402 50.4035 3.06 50.4035 4.222C50.4035 4.376 50.4035 4.6 50.4175 4.908C51.4955 4.782 52.3075 4.614 52.8395 4.39L52.8815 5.342C52.8535 5.342 52.8536 5.342 51.9016 5.538C51.5376 5.622 51.1455 5.678 50.4175 5.762C50.4315 7.148 50.4595 7.862 50.5715 9.724C51.5935 10.186 51.9855 10.41 52.9095 11.096C53.0775 11.208 53.1055 11.236 53.2595 11.334L52.8255 12.314C52.3915 11.824 51.8315 11.432 50.8375 10.858C50.7815 10.83 50.7815 10.83 50.6975 10.774C50.6415 10.732 50.6415 10.732 50.5715 10.69C50.5995 10.9 50.5995 10.928 50.5995 11.054C50.5995 11.418 50.5435 11.754 50.4315 12.006C50.0955 12.748 49.2415 13.182 48.0935 13.182C46.4695 13.182 45.4475 12.412 45.4475 11.194C45.4475 10.032 46.5536 9.206 48.1076 9.206C48.6816 9.206 49.3395 9.318 49.6615 9.486C49.6195 9.192 49.5635 7.876 49.5215 5.832C48.8915 5.86 48.4575 5.874 47.9255 5.874C47.3515 5.874 46.8335 5.86 46.3435 5.832C46.1055 5.804 45.9515 5.804 45.8955 5.804C45.7695 5.79 45.6855 5.79 45.6575 5.79C45.5875 5.776 45.5455 5.776 45.5175 5.776C45.5035 5.776 45.4895 5.776 45.4615 5.776ZM49.6755 10.34C49.1015 10.116 48.7376 10.046 48.1776 10.046C47.0856 10.046 46.3715 10.508 46.3715 11.208C46.3715 11.894 47.0155 12.342 47.9955 12.342C48.6115 12.342 49.1575 12.16 49.4235 11.852C49.6055 11.642 49.6895 11.306 49.6895 10.76C49.6895 10.662 49.6755 10.34 49.6755 10.34ZM42.9836 2.01L44.0755 2.192C43.4735 3.592 42.9976 6.462 42.9976 8.758C42.9976 9.248 43.0256 10.074 43.0536 10.718C43.0536 10.83 43.0536 10.858 43.0676 11.11C43.0676 11.236 43.0676 11.236 43.0676 11.376L43.1236 11.39C43.3756 10.34 43.4735 10.074 43.9495 8.926C44.0055 8.8 44.0335 8.744 44.0615 8.646L44.7476 8.968C44.0896 10.34 43.5435 12.118 43.5435 12.944C43.5435 13.014 43.5435 13.028 43.5715 13.224L42.5775 13.322C42.5635 13.196 42.5495 13.126 42.4935 12.804C42.2415 11.502 42.1015 10.06 42.1015 8.646C42.1015 6.784 42.2835 5.314 42.8295 2.892C42.9555 2.276 42.9696 2.192 42.9836 2.01Z" fill="white" style="mix-blend-mode:screen"/>
<path d="M55.2475 10.872L55.9755 10.214C57.1235 11.138 57.8375 11.894 58.7895 13.182L58.0055 13.924C57.1095 12.622 56.2975 11.74 55.2475 10.872Z" fill="white" style="mix-blend-mode:screen"/>
<path d="M76.3316 4.068H79.2856C80.1536 4.068 80.2096 4.068 80.4616 3.984L81.0356 4.53C80.9096 4.754 80.9096 4.754 80.7276 5.944C80.3916 8.058 79.5376 9.78 78.1936 11.054C77.1296 12.048 75.7716 12.818 74.0916 13.378C73.8956 12.958 73.8116 12.818 73.4476 12.426C74.7776 12.076 75.6035 11.698 76.5415 11.068C78.5015 9.71 79.5236 7.792 79.7896 4.95H72.1456V7.05C72.1456 7.498 72.1596 7.82 72.1876 8.086H71.0396C71.0676 7.848 71.0956 7.4 71.0956 7.036V5.146C71.0956 4.712 71.0816 4.348 71.0396 4.012C71.4736 4.054 71.7956 4.068 72.3276 4.068H75.2956V2.654C75.2956 2.248 75.2816 2.094 75.2256 1.758H76.4016C76.3596 2.024 76.3316 2.304 76.3316 2.64V4.068Z" fill="white" style="mix-blend-mode:screen"/>
<path d="M90.5695 7.302V12.146H93.5656C94.2236 12.146 94.4756 12.132 94.8256 12.076V13.056C94.4896 13.014 94.1256 13 93.5516 13H86.7756C86.1736 13 85.8375 13.014 85.5015 13.056V12.062C85.8655 12.132 86.0896 12.146 86.7616 12.146H89.6036V7.302H87.6016C86.9856 7.302 86.6776 7.316 86.3556 7.358V6.378C86.7056 6.434 87.0416 6.462 87.6016 6.462H92.7116C93.2856 6.462 93.6216 6.434 93.9576 6.378V7.358C93.5795 7.302 93.4676 7.302 92.7256 7.302H90.5695Z" fill="white" style="mix-blend-mode:screen"/>
<path d="M108.868 3.816L109.246 4.32C109.162 4.446 109.134 4.502 108.952 5.188C108.196 7.778 107.16 9.528 105.522 10.998C104.206 12.188 102.89 12.972 101.126 13.63C100.93 13.196 100.776 13 100.44 12.664C102.316 12.146 104.304 10.914 105.564 9.486C106.712 8.184 107.524 6.546 108.014 4.502H100.888C100.076 4.502 99.7395 4.53 99.3195 4.586V3.466C99.8235 3.536 100.146 3.55 100.902 3.55H107.664C107.958 3.55 108.14 3.55 108.49 3.536C107.916 2.542 107.678 2.206 107.174 1.632L107.874 1.268C108.588 2.122 109.106 2.878 109.386 3.508L108.868 3.816ZM108.994 1.156L109.68 0.778C110.31 1.534 110.66 2.052 111.15 2.934L110.436 3.354C110.142 2.696 109.554 1.814 108.994 1.156Z" fill="white" style="mix-blend-mode:screen"/>
<path d="M122.21 11.992H115.518C114.384 12.006 114.384 12.006 114.02 12.048V10.942C114.482 11.026 114.678 11.04 115.546 11.04H122.21V4.278H115.84C115 4.278 114.706 4.292 114.23 4.348V3.228C114.72 3.312 114.93 3.326 115.84 3.326H122.56C122.742 3.326 122.938 3.312 123.288 3.298C123.26 3.648 123.26 3.886 123.26 4.39V11.558C123.26 12.076 123.288 12.58 123.33 12.832H122.21V11.992Z" fill="white" style="mix-blend-mode:screen"/>
<path d="M128.188 3.858L128.874 3.102C130.372 4.054 131.24 4.74 132.248 5.734L131.52 6.602C130.512 5.51 129.406 4.6 128.188 3.858ZM128.286 12.958L127.978 11.782C129.07 11.74 130.75 11.306 132.052 10.704C134.754 9.5 136.63 7.442 137.764 4.474C138.086 4.908 138.226 5.034 138.618 5.3C137.498 7.736 136.196 9.374 134.348 10.648C132.906 11.628 131.464 12.202 129.126 12.734C128.748 12.818 128.636 12.846 128.286 12.958Z" fill="white" style="mix-blend-mode:screen"/>
<path d="M151.386 6.924H148.026C148.012 7.344 147.956 7.862 147.872 8.408C147.634 10.06 147.046 11.208 145.982 12.104C145.366 12.636 144.666 13.028 143.518 13.49C143.322 13.07 143.21 12.916 142.86 12.58C144.694 11.992 145.828 11.096 146.402 9.822C146.724 9.122 146.934 8.016 146.962 6.924H143.168C142.44 6.924 142.034 6.938 141.558 6.994V5.958C142.048 6.028 142.384 6.042 143.182 6.042H151.372C152.17 6.042 152.506 6.028 152.996 5.958V6.994C152.52 6.938 152.114 6.924 151.386 6.924ZM142.972 3.55V2.486C143.434 2.57 143.714 2.584 144.582 2.584H150.028C150.896 2.584 151.176 2.57 151.638 2.486V3.55C151.218 3.494 150.854 3.48 150.042 3.48H144.568C143.756 3.48 143.392 3.494 142.972 3.55Z" fill="white" style="mix-blend-mode:screen"/>
<path d="M156.748 3.858L157.434 3.102C158.932 4.054 159.8 4.74 160.808 5.734L160.08 6.602C159.072 5.51 157.966 4.6 156.748 3.858ZM156.846 12.958L156.538 11.782C157.63 11.74 159.31 11.306 160.612 10.704C163.314 9.5 165.19 7.442 166.324 4.474C166.646 4.908 166.786 5.034 167.178 5.3C166.058 7.736 164.756 9.374 162.908 10.648C161.466 11.628 160.024 12.202 157.686 12.734C157.308 12.818 157.196 12.846 156.846 12.958Z" fill="white" style="mix-blend-mode:screen"/>
<path d="M170.384 3.634L171.322 3.312C172.064 4.544 172.554 5.65 173.03 7.176L172.022 7.498C171.616 6.098 171.07 4.768 170.384 3.634ZM173.968 2.92L174.878 2.626C175.564 3.732 176.11 4.922 176.572 6.35L175.578 6.714C175.158 5.244 174.696 4.152 173.968 2.92ZM180.002 2.92L181.192 3.172C181.066 3.48 181.052 3.55 180.912 4.138C180.562 5.664 180.254 6.602 179.736 7.624C178.448 10.256 176.656 11.964 173.59 13.476C173.352 13.07 173.24 12.916 172.834 12.58C174.36 11.978 175.592 11.194 176.698 10.13C178.224 8.674 179.316 6.63 179.82 4.25C179.946 3.676 179.988 3.354 180.002 2.92Z" fill="white" style="mix-blend-mode:screen"/>
<path d="M182.783 10.872L183.511 10.214C184.659 11.138 185.373 11.894 186.325 13.182L185.541 13.924C184.645 12.622 183.833 11.74 182.783 10.872Z" fill="white" style="mix-blend-mode:screen"/>
<path d="M208.627 2.668L209.187 3.34C209.047 3.522 209.019 3.564 208.851 3.9C207.885 5.776 206.583 7.05 204.763 7.89C204.553 7.54 204.441 7.414 204.077 7.092C205.057 6.714 205.631 6.378 206.289 5.762C206.933 5.16 207.451 4.474 207.857 3.676H199.905C199.135 3.676 198.771 3.69 198.253 3.746V2.668C198.729 2.738 199.121 2.766 199.919 2.766H207.437C208.375 2.766 208.375 2.766 208.627 2.668ZM202.523 5.104H203.657C203.615 5.356 203.615 5.356 203.601 6.084C203.559 8.422 203.167 9.808 202.215 11.012C201.361 12.09 200.325 12.79 198.631 13.434C198.421 12.986 198.323 12.846 197.987 12.496C199.121 12.16 199.821 11.81 200.549 11.208C202.033 10.018 202.579 8.59 202.579 5.86C202.579 5.468 202.565 5.37 202.523 5.104Z" fill="white" style="mix-blend-mode:screen"/>
<path d="M221.381 3.214C221.339 3.06 221.325 2.934 221.325 2.808C221.325 1.926 222.039 1.212 222.921 1.212C223.789 1.212 224.503 1.926 224.503 2.794C224.503 3.676 223.789 4.39 222.907 4.39C222.753 4.39 222.613 4.376 222.417 4.32C222.403 4.362 222.403 4.362 222.389 4.404C221.703 6.896 220.807 8.646 219.533 9.976C218.077 11.502 216.495 12.524 214.437 13.294C214.241 12.86 214.087 12.664 213.751 12.328C215.627 11.81 217.615 10.578 218.875 9.15C220.023 7.848 220.835 6.21 221.325 4.166H214.199C213.387 4.166 213.051 4.194 212.631 4.25V3.13C213.135 3.2 213.457 3.214 214.213 3.214H221.381ZM222.921 1.8C222.361 1.8 221.913 2.248 221.913 2.794C221.913 3.354 222.361 3.802 222.921 3.802C223.467 3.802 223.915 3.354 223.915 2.794C223.915 2.248 223.467 1.8 222.921 1.8Z" fill="white" style="mix-blend-mode:screen"/>
<path d="M228.269 2.192H229.431C229.389 2.528 229.375 2.71 229.375 3.354V7.12C229.375 7.792 229.389 7.946 229.431 8.282H228.269C228.311 7.96 228.325 7.666 228.325 7.106V3.368C228.325 2.766 228.311 2.528 228.269 2.192ZM234.457 2.192H235.633C235.577 2.514 235.563 2.738 235.563 3.41V5.062C235.563 7.288 235.465 8.52 235.213 9.332C234.807 10.648 233.925 11.67 232.553 12.44C231.867 12.832 231.195 13.098 230.005 13.448C229.851 13.042 229.767 12.902 229.417 12.482C230.677 12.202 231.349 11.964 232.077 11.53C233.379 10.774 234.051 9.878 234.317 8.576C234.471 7.778 234.513 7.134 234.513 5.006V3.424C234.513 2.696 234.499 2.5 234.457 2.192Z" fill="white" style="mix-blend-mode:screen"/>
<path d="M244.439 7.82H244.075C243.487 7.82 243.067 7.834 242.745 7.876V7.05C243.123 7.106 243.445 7.12 244.075 7.12H248.513C249.157 7.12 249.465 7.106 249.857 7.05V7.876C249.535 7.834 249.115 7.82 248.527 7.82H248.023V9.556H248.723C249.367 9.556 249.731 9.542 250.067 9.486V10.326C249.717 10.27 249.339 10.256 248.723 10.256H248.023V12.412C248.023 13.042 248.037 13.35 248.107 13.616H247.141C247.211 13.322 247.225 13 247.225 12.412V10.256H245.111C244.929 11.824 244.453 12.706 243.263 13.728C243.039 13.476 242.871 13.336 242.563 13.154C243.221 12.664 243.515 12.37 243.781 11.922C244.061 11.474 244.229 10.928 244.313 10.256H243.823C243.207 10.256 242.829 10.27 242.479 10.326V9.486C242.815 9.542 243.193 9.556 243.823 9.556H244.383C244.425 8.884 244.425 8.884 244.439 7.82ZM247.225 7.82H245.237C245.237 7.946 245.237 7.946 245.237 8.142C245.237 8.576 245.209 9.08 245.181 9.556H247.225V7.82ZM241.471 6V12.426C241.471 13.196 241.499 13.63 241.555 13.994H240.519C240.575 13.616 240.603 13.182 240.603 12.426V3.228C240.603 2.542 240.589 2.136 240.547 1.688C240.925 1.73 241.317 1.744 242.017 1.744H244.145C244.831 1.744 245.167 1.73 245.559 1.688C245.531 2.08 245.517 2.5 245.517 3.018V4.74C245.517 5.3 245.531 5.692 245.559 6.042C245.223 6.014 244.747 6 244.145 6H241.471ZM241.471 2.43V3.508H244.719V2.43H241.471ZM241.471 4.18V5.314H244.719V4.18H241.471ZM251.957 3.228V12.608C251.957 13.21 251.817 13.504 251.453 13.658C251.257 13.728 251.047 13.756 250.459 13.756C250.291 13.756 249.549 13.728 249.269 13.714C249.213 13.35 249.157 13.14 249.003 12.818C249.549 12.902 250.179 12.958 250.557 12.958C251.005 12.958 251.103 12.888 251.103 12.566V6H248.233C247.645 6 247.197 6.014 246.805 6.042C246.833 5.636 246.847 5.3 246.847 4.74V3.018C246.847 2.5 246.833 2.15 246.805 1.688C247.197 1.73 247.547 1.744 248.247 1.744H250.557C251.257 1.744 251.635 1.73 252.027 1.688C251.971 2.206 251.957 2.598 251.957 3.228ZM247.659 2.43V3.508H251.103V2.43H247.659ZM247.659 4.18V5.314H251.103V4.18H247.659Z" fill="white" style="mix-blend-mode:screen"/>
<path d="M256.199 9.066H258.411C258.481 8.45 258.509 8.1 258.509 7.05C258.033 7.05 257.711 7.064 257.361 7.106V6.42C256.465 7.12 255.863 7.47 254.645 8.03C254.463 7.708 254.323 7.526 254.085 7.302C255.457 6.742 256.283 6.252 257.277 5.398C256.423 4.516 256.017 4.166 255.163 3.564L255.821 3.018C256.675 3.676 257.207 4.138 257.893 4.824C258.775 3.956 258.999 3.69 259.657 2.64H257.011C256.773 2.64 256.479 2.654 256.101 2.71V1.814C256.339 1.856 256.661 1.884 257.109 1.884H259.769C260.413 1.884 260.735 1.87 261.015 1.828C261.113 2.374 261.435 2.976 262.093 3.732C262.681 3.172 263.283 2.43 263.549 1.94L264.319 2.444C264.193 2.556 264.151 2.612 264.025 2.766C263.493 3.396 263.143 3.774 262.583 4.278C262.975 4.67 263.311 4.978 263.773 5.37C264.501 4.698 265.103 4.012 265.439 3.438L266.209 3.942C266.069 4.096 266.069 4.096 265.537 4.684C265.187 5.076 264.865 5.384 264.375 5.818C265.271 6.448 265.831 6.742 267.007 7.204C266.769 7.47 266.671 7.624 266.461 8.016C265.257 7.442 264.697 7.106 263.787 6.434V7.106C263.423 7.064 263.087 7.05 262.597 7.05H262.359V9.066H264.851C265.481 9.066 265.873 9.038 266.251 8.982V9.934C265.845 9.878 265.439 9.85 264.851 9.85H262.359V12.496C262.359 12.72 262.415 12.804 262.639 12.874C262.807 12.93 263.241 12.958 263.717 12.958C264.809 12.958 265.201 12.888 265.397 12.664C265.565 12.468 265.677 11.964 265.761 11.082C266.111 11.32 266.349 11.418 266.657 11.488C266.489 12.51 266.321 13.042 266.041 13.336C265.747 13.672 265.131 13.784 263.619 13.784C261.883 13.784 261.491 13.588 261.491 12.734V9.85H259.153C258.957 10.788 258.649 11.46 258.159 12.048C257.781 12.51 257.193 13 256.563 13.378C256.171 13.616 255.863 13.756 255.163 14.022C254.967 13.686 254.813 13.518 254.505 13.224C255.513 12.916 255.975 12.692 256.647 12.23C257.557 11.6 258.005 10.942 258.271 9.85H256.199C255.611 9.85 255.233 9.878 254.813 9.934V8.982C255.191 9.038 255.583 9.066 256.199 9.066ZM261.491 7.05H259.391C259.363 8.45 259.363 8.45 259.293 9.066H261.491V7.05ZM258.621 6.294H262.555C263.031 6.294 263.255 6.28 263.549 6.252C262.093 5.076 261.267 4.124 260.539 2.766C259.615 4.278 258.831 5.202 257.571 6.252C257.893 6.28 258.131 6.294 258.621 6.294Z" fill="white" style="mix-blend-mode:screen"/>
<path d="M268.463 10.872L269.191 10.214C270.339 11.138 271.053 11.894 272.005 13.182L271.221 13.924C270.325 12.622 269.513 11.74 268.463 10.872Z" fill="white" style="mix-blend-mode:screen"/>
<path d="M52.3543 27.896H48.9943C48.8263 31.522 47.6503 33.23 44.4863 34.462C44.3043 34.056 44.1643 33.874 43.8283 33.552C46.7263 32.586 47.8183 31.088 47.9303 27.896H44.1363C43.2543 27.896 42.9603 27.91 42.5263 27.966V26.93C42.9883 27 43.2683 27.014 44.1503 27.014H52.3403C53.2363 27.014 53.5023 27 53.9643 26.93V27.966C53.5303 27.91 53.2363 27.896 52.3543 27.896ZM43.9403 24.522V23.458C44.3603 23.542 44.6403 23.556 45.5503 23.556H49.7783C50.5343 23.556 50.8983 23.542 51.3883 23.486V24.494C51.2063 24.48 50.6743 24.466 49.7923 24.452H45.5363C44.5703 24.452 44.3323 24.466 43.9403 24.522ZM51.4443 22.618L52.1443 22.282C52.7463 23.052 53.1243 23.668 53.5163 24.494L52.8023 24.886C52.4803 24.13 51.8363 23.066 51.4443 22.618ZM53.1663 22.1L53.8663 21.75C54.4683 22.534 54.8043 23.08 55.2383 23.962L54.5243 24.354C54.2443 23.682 53.6843 22.758 53.1663 22.1Z" fill="white" style="mix-blend-mode:screen"/>
<path d="M60.3063 25.88H64.5763V24.508C64.5763 23.528 64.5763 23.402 64.5343 23.08H65.6263C65.5843 23.472 65.5843 23.486 65.5703 24.41C65.5703 24.578 65.5703 24.844 65.5703 25.138V25.88H66.7743C67.6563 25.88 67.9363 25.866 68.4123 25.796V26.86C67.9643 26.804 67.6843 26.79 66.7883 26.79H65.5563C65.5423 29.492 65.3883 30.528 64.8703 31.536C64.1143 32.936 62.8543 33.916 60.9643 34.56C60.7963 34.196 60.6563 33.986 60.3343 33.678C62.1683 33.216 63.5823 32.124 64.1423 30.71C64.4503 29.87 64.5343 29.03 64.5623 26.79H60.3063V29.128C60.3063 29.744 60.3203 29.94 60.3623 30.262H59.2283C59.2703 29.968 59.2843 29.828 59.2843 29.086V26.79H58.1083C57.2123 26.79 56.9323 26.804 56.4843 26.86V25.796C56.9603 25.866 57.2403 25.88 58.1223 25.88H59.2843V24.256C59.2843 23.514 59.2703 23.388 59.2283 23.08H60.3623C60.3203 23.416 60.3063 23.598 60.3063 24.214V25.88ZM66.1583 22.408L66.9003 22.198C67.3483 23.01 67.5723 23.5 67.8943 24.494L67.1523 24.746C66.8163 23.71 66.5363 23.038 66.1583 22.408ZM67.7963 21.974L68.5103 21.736C68.9303 22.464 69.2803 23.262 69.5043 24.018L68.7763 24.27C68.5103 23.416 68.1323 22.52 67.7963 21.974Z" fill="white" style="mix-blend-mode:screen"/>
<path d="M79.9823 22.884L80.9483 23.57C80.6963 23.752 80.6823 23.78 80.3323 24.158C79.4503 25.082 78.2603 26.104 77.0563 26.972V32.936C77.0563 33.734 77.0703 34.042 77.1263 34.42H75.9083C75.9783 34.056 75.9923 33.734 75.9923 32.964V27.644C74.1723 28.764 73.1503 29.226 70.5883 30.094C70.3923 29.646 70.3223 29.506 70.0423 29.156C72.6743 28.47 75.0963 27.266 77.3083 25.53C78.6103 24.522 79.5903 23.542 79.9823 22.884Z" fill="white" style="mix-blend-mode:screen"/>
<path d="M85.4843 24.858L86.1703 24.102C87.6683 25.054 88.5363 25.74 89.5443 26.734L88.8163 27.602C87.8083 26.51 86.7023 25.6 85.4843 24.858ZM85.5823 33.958L85.2743 32.782C86.3663 32.74 88.0463 32.306 89.3483 31.704C92.0503 30.5 93.9263 28.442 95.0603 25.474C95.3823 25.908 95.5223 26.034 95.9143 26.3C94.7943 28.736 93.4923 30.374 91.6443 31.648C90.2023 32.628 88.7603 33.202 86.4223 33.734C86.0443 33.818 85.9323 33.846 85.5823 33.958Z" fill="white" style="mix-blend-mode:screen"/>
<path d="M101.71 25.152H99.9043C99.6523 25.712 99.5263 25.922 99.1763 26.482C98.9103 26.3 98.7003 26.188 98.3923 26.076C99.0363 25.166 99.3863 24.452 99.6663 23.388C99.7643 23.052 99.8063 22.814 99.8203 22.604L100.73 22.828C100.646 23.024 100.562 23.262 100.492 23.556C100.394 23.878 100.338 24.06 100.226 24.368H101.71V23.822C101.71 23.108 101.696 22.772 101.626 22.394H102.648C102.578 22.772 102.564 23.066 102.564 23.808V24.368H103.992C104.692 24.368 105.042 24.354 105.364 24.298V25.222C105.014 25.166 104.664 25.152 103.992 25.152H102.564V26.804H104.524C105.084 26.804 105.476 26.79 105.84 26.734V27.658C105.518 27.602 105.182 27.588 104.51 27.588H102.564V29.114H104.048C104.552 29.114 104.944 29.1 105.35 29.044C105.308 29.422 105.294 29.758 105.294 30.332V33.104C105.294 33.776 105.014 33.944 103.894 33.944C103.698 33.944 103.628 33.944 103.124 33.916C103.11 33.58 103.068 33.342 102.984 33.076C103.292 33.132 103.558 33.146 103.964 33.146C104.384 33.146 104.468 33.104 104.468 32.908V29.898H102.564V33.468C102.564 34.252 102.578 34.63 102.634 35.05H101.626C101.682 34.588 101.71 34.126 101.71 33.468V29.898H99.7923V32.544C99.7923 33.216 99.8063 33.608 99.8483 34H98.8823C98.9383 33.636 98.9523 33.398 98.9523 32.558V30.346C98.9523 29.814 98.9383 29.422 98.8963 29.044C99.3303 29.1 99.7223 29.114 100.226 29.114H101.71V27.588H99.7363C99.1483 27.588 98.7843 27.616 98.4063 27.672V26.72C98.7843 26.79 99.1203 26.804 99.6943 26.804H101.71V25.152ZM106.484 23.22H107.534C107.464 23.598 107.45 23.962 107.45 24.746V30.234C107.45 31.158 107.464 31.438 107.52 31.802H106.498C106.554 31.424 106.568 31.144 106.568 30.234V24.76C106.568 23.99 106.554 23.612 106.484 23.22ZM109.34 22.436H110.418C110.348 22.842 110.32 23.318 110.32 24.13V33.594C110.32 34.616 110.026 34.854 108.752 34.854C108.388 34.854 107.94 34.84 107.268 34.784C107.212 34.406 107.156 34.196 107.002 33.888C107.716 33.986 108.304 34.028 108.766 34.028C109.34 34.028 109.438 33.958 109.438 33.608V24.144C109.438 23.318 109.41 22.87 109.34 22.436Z" fill="white" style="mix-blend-mode:screen"/>
<path d="M119.602 25.334H118.986C118.328 26.664 117.684 27.658 116.76 28.75C116.48 28.372 116.48 28.372 116.06 28.078C117.152 26.916 117.908 25.754 118.538 24.242C118.874 23.416 119.084 22.73 119.126 22.254L120.106 22.576C119.994 22.828 119.952 22.926 119.826 23.29C119.63 23.864 119.56 24.046 119.35 24.536H123.788C124.348 24.536 124.656 24.522 125.062 24.452V25.404C124.712 25.348 124.376 25.334 123.788 25.334H120.498V27.602H123.34C123.858 27.602 124.18 27.574 124.572 27.518V28.484C124.138 28.428 123.816 28.4 123.34 28.4H120.498V30.668H123.382C123.886 30.668 124.222 30.64 124.614 30.584V31.55C124.236 31.494 123.872 31.466 123.382 31.466H120.498V33.608C120.498 34.294 120.526 34.728 120.596 35.078H119.518C119.574 34.742 119.602 34.35 119.602 33.608V25.334ZM115.864 22.254L116.844 22.576C116.676 22.954 116.634 23.08 116.522 23.36C116.2 24.228 116.018 24.634 115.486 25.684V33.342C115.486 33.972 115.514 34.56 115.584 35.022H114.492C114.562 34.476 114.59 33.986 114.59 33.314V28.666C114.59 28.064 114.604 27.686 114.646 26.86C114.156 27.686 113.722 28.246 112.91 29.072C112.658 28.666 112.658 28.666 112.322 28.33C113.554 27.21 114.534 25.824 115.276 24.13C115.598 23.402 115.78 22.8 115.864 22.254Z" fill="white" style="mix-blend-mode:screen"/>
<path d="M130.998 24.578H131.222C131.684 23.598 131.852 23.108 131.894 22.66L133.014 22.856C132.888 23.038 132.888 23.038 132.65 23.612C132.468 24.06 132.286 24.438 132.216 24.564C132.384 24.55 132.384 24.55 132.51 24.55C134.75 24.438 136.15 24.27 136.92 24.018L137.004 24.97C136.78 24.984 136.696 24.998 136.444 25.04C134.988 25.236 133.518 25.348 131.824 25.404C131.404 26.23 131.054 26.79 130.564 27.392C130.424 27.56 130.144 27.882 130.088 27.924C129.99 27.994 129.92 28.05 129.906 28.064C129.906 28.078 129.892 28.078 129.892 28.078C129.892 28.092 129.892 28.092 129.892 28.092C129.906 28.12 129.906 28.12 129.92 28.134C130.424 27.742 130.424 27.742 130.564 27.644C131.208 27.196 131.95 26.958 132.678 26.958C133.714 26.958 134.344 27.476 134.526 28.512C135.548 28.106 136.346 27.812 136.962 27.588C137.648 27.35 137.69 27.336 137.914 27.182L138.362 28.162C137.634 28.288 136.374 28.708 134.624 29.394C134.652 29.758 134.652 29.898 134.652 30.248C134.652 30.43 134.652 30.738 134.638 31.018C134.624 31.326 134.624 31.522 134.624 31.648C134.624 31.844 134.624 31.956 134.652 32.152L133.7 32.166C133.742 31.858 133.784 31.004 133.784 30.15C133.784 29.926 133.784 29.898 133.77 29.73C131.866 30.626 131.138 31.284 131.138 32.124C131.138 33.048 132.006 33.454 133.98 33.454C135.366 33.454 136.92 33.23 137.718 32.908L137.844 33.986C137.634 34 137.564 34.014 137.284 34.056C136.178 34.238 134.96 34.336 133.882 34.336C131.376 34.336 130.158 33.622 130.158 32.18C130.158 31.41 130.634 30.682 131.586 29.968C132.062 29.618 132.734 29.254 133.672 28.848C133.56 28.078 133.224 27.742 132.566 27.742C131.684 27.742 130.578 28.26 129.444 29.226C128.898 29.688 128.59 30.01 128.366 30.388L127.582 29.604C128.548 28.862 129.71 27.392 130.718 25.6C130.76 25.53 130.76 25.53 130.844 25.39C130.788 25.404 130.648 25.418 130.578 25.418C130.354 25.418 129.038 25.39 128.52 25.376C128.45 25.376 128.338 25.376 128.296 25.376C128.17 25.376 128.142 25.376 127.988 25.39L128.002 24.424C128.506 24.522 129.57 24.578 130.998 24.578Z" fill="white" style="mix-blend-mode:screen"/>
<path d="M150.43 27.532H147.238C146.58 27.532 146.02 27.56 145.684 27.616V26.636C146.02 26.692 146.566 26.72 147.238 26.72H152.152C152.866 26.72 153.37 26.692 153.692 26.636V27.616C153.328 27.56 152.81 27.532 152.166 27.532H151.368V33.664C151.368 34.56 151.032 34.798 149.8 34.798C149.352 34.798 148.694 34.77 148.092 34.728C148.05 34.336 147.994 34.084 147.868 33.762C148.666 33.874 149.268 33.93 149.842 33.93C150.318 33.93 150.43 33.874 150.43 33.594V27.532ZM144.34 22.352L145.208 22.884C145.11 22.982 145.082 23.024 144.956 23.192C144.116 24.34 143.108 25.32 141.848 26.23C141.638 25.922 141.484 25.754 141.218 25.544C142.002 25.04 142.506 24.634 143.066 24.06C143.766 23.36 144.116 22.87 144.34 22.352ZM146.258 24.102V23.122C146.636 23.178 147.084 23.206 147.714 23.206H151.634C152.264 23.206 152.684 23.178 153.076 23.122V24.102C152.656 24.046 152.194 24.018 151.634 24.018H147.714C147.154 24.018 146.678 24.046 146.258 24.102ZM143.276 33.314V30.178C143.276 29.576 143.29 29.17 143.318 28.498C142.814 29.142 142.408 29.534 141.722 30.066C141.554 29.716 141.4 29.492 141.176 29.268C142.268 28.526 143.164 27.644 144.004 26.51C144.326 26.076 144.536 25.684 144.676 25.306L145.544 25.796C145.376 26.006 145.334 26.076 145.124 26.398C144.83 26.874 144.578 27.196 144.186 27.658V33.314C144.186 34.07 144.214 34.63 144.284 35.022H143.178C143.248 34.63 143.276 34.056 143.276 33.314Z" fill="white" style="mix-blend-mode:screen"/>
<path d="M158.578 23.92L158.914 22.968C160.286 23.486 162.316 23.808 164.612 23.836L164.458 24.844C162.176 24.718 160.454 24.452 158.578 23.92ZM157.122 28.47L156.856 27.336C157.178 27.308 157.178 27.308 158.27 27.098C160.132 26.748 161.434 26.594 162.54 26.594C163.59 26.594 164.374 26.762 164.948 27.126C165.732 27.616 166.138 28.386 166.138 29.352C166.138 30.85 165.284 32.18 163.73 33.132C162.666 33.776 161.756 34.07 159.67 34.462C159.488 33.902 159.432 33.776 159.222 33.44C160.706 33.342 161.98 32.978 163.156 32.306C163.716 31.998 164.024 31.746 164.36 31.312C164.836 30.682 165.074 30.052 165.074 29.408C165.074 28.708 164.752 28.148 164.178 27.84C163.828 27.644 163.184 27.532 162.456 27.532C161.014 27.532 158.214 28.022 157.122 28.47Z" fill="white" style="mix-blend-mode:screen"/>
<path d="M174.3 30.234H171.724C171.038 30.234 170.548 30.262 170.128 30.318V29.31C170.562 29.366 171.024 29.394 171.724 29.394H180.348C181.062 29.394 181.51 29.366 181.944 29.31V30.318C181.51 30.262 181.034 30.234 180.348 30.234H175.322C174.552 31.914 174.286 32.432 173.572 33.538C175.504 33.412 176.96 33.272 179.032 33.02C178.192 32.11 177.94 31.858 177.324 31.284L178.052 30.836C179.452 32.152 180.39 33.188 181.44 34.532L180.67 35.106C180.124 34.336 179.942 34.098 179.648 33.734C177.156 34.07 175.042 34.294 172.858 34.462C171.122 34.602 170.842 34.63 170.492 34.714L170.324 33.65C170.562 33.678 170.828 33.692 171.038 33.692C171.262 33.692 171.262 33.692 172.522 33.608C173.306 32.362 173.754 31.522 174.3 30.234ZM175.462 22.422H176.456C177.114 23.43 177.73 24.088 178.808 24.928C180.026 25.894 181.37 26.664 182.672 27.168C182.392 27.504 182.252 27.742 182.126 28.064C180.726 27.406 179.368 26.552 178.234 25.628C177.296 24.858 176.652 24.158 175.994 23.234C175.308 24.186 174.776 24.76 173.894 25.53C172.662 26.594 171.514 27.35 170.114 27.994C169.974 27.7 169.75 27.406 169.526 27.196C170.968 26.566 172.074 25.88 173.236 24.914C174.202 24.102 174.846 23.388 175.462 22.422ZM172.62 27.686V26.748C172.9 26.79 173.208 26.804 173.726 26.804H178.248C178.794 26.804 179.116 26.79 179.424 26.748V27.686C179.13 27.644 178.766 27.63 178.248 27.63H173.712C173.292 27.63 172.9 27.644 172.62 27.686Z" fill="white" style="mix-blend-mode:screen"/>
<path d="M187.096 29.044V33.692C187.096 34.28 187.124 34.686 187.18 35.064H186.144C186.2 34.658 186.228 34.266 186.228 33.678V29.324C185.542 30.01 185.164 30.332 184.296 30.976C184.142 30.64 184.03 30.472 183.778 30.192C184.758 29.576 185.528 28.946 186.298 28.12C187.026 27.336 187.488 26.65 188.034 25.516H185.416C184.996 25.516 184.688 25.53 184.296 25.572V24.648C184.674 24.69 184.982 24.704 185.388 24.704H186.214V23.402C186.214 22.996 186.186 22.632 186.144 22.324H187.194C187.138 22.618 187.11 22.982 187.11 23.416V24.704H187.922C188.342 24.704 188.566 24.69 188.734 24.662L189.168 25.152C189.07 25.306 188.986 25.46 188.832 25.754C188.412 26.608 187.95 27.322 187.292 28.134C188.006 28.96 188.58 29.45 189.546 30.038C189.336 30.304 189.21 30.5 189.07 30.808C188.188 30.192 187.67 29.73 187.096 29.044ZM191.954 26.664V23.64C191.954 23.164 191.926 22.898 191.856 22.366H192.962C192.878 22.856 192.864 23.164 192.864 23.64V26.664H194.698C195.3 26.664 195.678 26.636 196.07 26.58V27.56C195.636 27.518 195.188 27.49 194.698 27.49H192.864V33.468H195.076C195.804 33.468 196.224 33.44 196.588 33.384V34.434C196.126 34.364 195.692 34.336 195.076 34.336H190.036C189.42 34.336 188.986 34.364 188.538 34.434V33.384C188.902 33.44 189.322 33.468 190.05 33.468H191.954V27.49H190.568C190.092 27.49 189.63 27.518 189.196 27.56V26.58C189.56 26.636 189.98 26.664 190.568 26.664H191.954Z" fill="white" style="mix-blend-mode:screen"/>
<path d="M198.87 25.838L198.8 24.732C199.066 24.746 199.206 24.746 199.304 24.746C199.5 24.746 199.668 24.732 200.102 24.704C200.886 24.648 200.97 24.634 202.692 24.536L204.89 24.396C206.612 24.298 206.794 24.284 207.256 24.27L208.054 24.242C209.258 24.172 209.524 24.144 209.72 24.088L209.804 25.124C209.244 25.124 208.768 25.18 208.236 25.32C207.298 25.558 206.318 26.062 205.548 26.72C204.428 27.658 203.826 28.792 203.826 29.954C203.826 31.13 204.54 32.068 205.786 32.544C206.472 32.796 207.354 32.992 207.886 32.992C207.914 32.992 207.97 32.992 208.026 32.992L207.844 34.126C207.69 34.098 207.662 34.084 207.41 34.042C206.024 33.804 205.184 33.51 204.386 32.964C203.392 32.292 202.832 31.27 202.832 30.108C202.832 28.484 203.784 26.944 205.45 25.81C205.884 25.516 206.248 25.32 206.78 25.068C205.982 25.208 205.17 25.278 203.7 25.376C200.914 25.572 199.374 25.712 198.87 25.838ZM207.466 27.182L208.166 26.818C208.796 27.574 209.188 28.162 209.608 28.988L208.894 29.408C208.558 28.666 207.886 27.616 207.466 27.182ZM209.062 26.426L209.748 26.048C210.378 26.818 210.728 27.35 211.19 28.232L210.49 28.624C210.182 27.966 209.608 27.07 209.062 26.426Z" fill="white" style="mix-blend-mode:screen"/>
<path d="M219.562 24.676L219.534 23.57C219.534 23.206 219.52 23.052 219.478 22.758H220.528C220.472 23.206 220.458 23.416 220.458 24.508V24.662C223.104 24.648 224.182 24.62 224.644 24.564V25.558C224.126 25.502 223.636 25.488 221.97 25.488C221.76 25.488 221.606 25.488 220.472 25.516V28.288C220.71 28.876 220.808 29.324 220.808 29.94C220.808 31.396 220.136 32.684 218.932 33.594C218.358 34.014 217.742 34.336 216.72 34.728C216.482 34.28 216.398 34.154 216.104 33.846C217.196 33.496 217.812 33.216 218.372 32.796C219.394 32.026 219.884 31.116 219.94 29.842C219.814 30.178 219.73 30.332 219.562 30.528C219.142 31.032 218.54 31.284 217.798 31.284C216.454 31.284 215.502 30.36 215.502 29.072C215.502 27.742 216.552 26.762 217.98 26.762C218.652 26.762 219.24 26.986 219.604 27.392C219.59 27.196 219.59 27.14 219.59 26.622C219.59 26.566 219.576 26.426 219.576 26.258C219.576 26.062 219.576 26.062 219.576 25.53C216.762 25.586 213.934 25.726 212.996 25.88L212.954 24.858C213.206 24.872 213.304 24.872 213.514 24.872C213.92 24.872 213.92 24.872 216.174 24.788C217.518 24.732 218.61 24.704 219.562 24.676ZM219.52 28.764C219.52 28.302 219.338 28.008 218.932 27.784C218.666 27.63 218.372 27.56 217.994 27.56C217.112 27.56 216.44 28.19 216.44 29.03C216.44 29.842 217.028 30.416 217.882 30.416C218.848 30.416 219.52 29.744 219.52 28.764Z" fill="white" style="mix-blend-mode:screen"/>
<path d="M227.576 30.71C228.738 30.71 229.676 31.648 229.676 32.81C229.676 33.972 228.738 34.91 227.576 34.91C226.414 34.91 225.476 33.972 225.476 32.81C225.476 31.648 226.414 30.71 227.576 30.71ZM227.576 31.508C226.862 31.508 226.274 32.096 226.274 32.81C226.274 33.524 226.862 34.112 227.576 34.112C228.29 34.112 228.878 33.524 228.878 32.81C228.878 32.096 228.29 31.508 227.576 31.508Z" fill="white" style="mix-blend-mode:screen"/>
</svg>
