<svg width="160" height="34" viewBox="0 0 160 34" fill="none" xmlns="http://www.w3.org/2000/svg">
<mask id="mask0_37_420" style="mask-type:luminance" maskUnits="userSpaceOnUse" x="0" y="0" width="160" height="34">
<path d="M160 0H0V33.3333H160V0Z" fill="white"/>
</mask>
<g mask="url(#mask0_37_420)">
<path d="M19.3875 7.17649C18.1546 6.14866 16.4857 5.63442 14.3808 5.63377C12.9576 5.61222 11.5399 5.81593 10.1806 6.23732C9.07746 6.58524 8.00893 7.03433 6.98871 7.57885V32.1927C6.56529 32.3583 6.12653 32.4819 5.6788 32.5615C5.06984 32.6775 4.45097 32.7338 3.83103 32.7295C2.53113 32.7295 1.56783 32.4835 0.941146 31.9915C0.31446 31.4995 0.000790734 30.6723 0.000138389 29.5099V7.37735C-0.0407852 6.5094 0.169124 5.64801 0.604862 4.89578C1.14384 4.14132 1.82935 3.50276 2.62061 3.01808C4.16726 2.13298 5.81408 1.435 7.52624 0.938879C9.75077 0.283675 12.0616 -0.0328362 14.3808 3.12862e-05C18.7256 3.12862e-05 22.1299 0.972518 24.5935 2.91749C27.0572 4.86246 28.2897 7.80228 28.291 11.7369V32.1927C27.8567 32.3605 27.4065 32.4841 26.9472 32.5615C26.3267 32.6764 25.6966 32.7327 25.0655 32.7295C23.7656 32.7295 22.8021 32.4835 22.175 31.9915C21.5479 31.4995 21.2342 30.6723 21.234 29.5099V12.0052C21.234 9.81518 20.618 8.20551 19.3862 7.17616" fill="white" style="mix-blend-mode:screen"/>
<path d="M67.7356 16.633C67.769 18.985 67.3825 21.3242 66.594 23.5409C65.9013 25.4851 64.8148 27.266 63.4021 28.7726C61.996 30.2309 60.2871 31.3643 58.3953 32.0931C56.2949 32.8986 54.0599 33.2969 51.8099 33.2666C49.5601 33.2969 47.3251 32.8986 45.2248 32.0931C43.333 31.3648 41.6242 30.2313 40.2187 28.7726C38.805 27.2667 37.7182 25.4856 37.0265 23.5409C36.2375 21.3243 35.8509 18.985 35.8849 16.633C35.8511 14.281 36.2377 11.9417 37.0265 9.7251C37.7219 7.77467 38.8205 5.99198 40.251 4.49275C41.6742 3.03896 43.3931 1.90668 45.292 1.17228C47.3699 0.3711 49.5819 -0.0266685 51.8093 0.000342859C54.0371 -0.02594 56.2496 0.372372 58.3278 1.1739C60.2321 1.91239 61.952 3.05668 63.3675 4.52693C64.7887 6.03324 65.8865 7.81357 66.5934 9.75863C67.3836 11.9633 67.7702 14.2918 67.735 16.633M51.8093 5.63408C49.1214 5.63408 46.9935 6.59528 45.4257 8.51769C43.8579 10.4401 43.074 13.1452 43.074 16.633C43.074 20.1204 43.8357 22.8142 45.3589 24.7144C46.8821 26.6147 49.0322 27.5648 51.8093 27.5648C54.5874 27.5648 56.7379 26.6147 58.261 24.7144C59.784 22.8142 60.545 20.1204 60.5442 16.633C60.5442 13.1903 59.7715 10.4965 58.2261 8.55154C56.6807 6.60657 54.5414 5.63408 51.8083 5.63408" fill="white" style="mix-blend-mode:screen"/>
<path d="M82.3181 32.193C81.8946 32.3585 81.4559 32.482 81.0082 32.5618C80.399 32.6778 79.7799 32.7341 79.1598 32.7298C77.8599 32.7298 76.8966 32.4838 76.2699 31.9918C75.6432 31.4998 75.3296 30.6726 75.3292 29.5103V7.51178C75.2864 6.56067 75.5197 5.61746 76.0011 4.7955C76.5682 3.99039 77.3015 3.31584 78.1516 2.81722C79.7022 1.90868 81.3773 1.23082 83.1241 0.805074C85.2973 0.248959 87.5339 -0.0215699 89.7773 0.000347278C93.7188 0.000347278 95.6899 1.11802 95.6905 3.35338C95.694 3.86846 95.603 4.37984 95.4221 4.86224C95.2608 5.29439 95.0581 5.70997 94.8167 6.10318C94.369 6.0142 93.8092 5.92468 93.1372 5.83462C92.4241 5.74295 91.7058 5.69826 90.9868 5.70082C89.3343 5.68447 87.6863 5.87598 86.0818 6.27084C84.7699 6.58622 83.5047 7.07079 82.3181 7.71231V32.193Z" fill="white" style="mix-blend-mode:screen"/>
<path d="M113.902 0.000347739C118.068 0.000347739 121.383 0.905666 123.847 2.7163C126.311 4.52694 127.543 7.37744 127.543 11.2678V26.8936C127.543 27.9225 127.307 28.7162 126.837 29.2746C126.288 29.8995 125.642 30.4317 124.923 30.8505C123.503 31.6214 121.989 32.2074 120.42 32.5941C118.333 33.1158 116.187 33.3639 114.035 33.3321C109.69 33.3321 106.297 32.4826 103.855 30.7838C101.413 29.0849 100.193 26.5812 100.194 23.2726C100.194 20.3211 101.146 18.0632 103.05 16.4989C104.954 14.9346 107.698 13.9734 111.282 13.6153L120.623 12.6764V11.1988C120.623 9.23192 119.984 7.80118 118.708 6.90661C117.431 6.01203 115.65 5.56551 113.365 5.56703C111.613 5.5614 109.87 5.81 108.19 6.30502C106.669 6.74519 105.185 7.30591 103.754 7.98186C103.299 7.61659 102.912 7.17374 102.612 6.67385C102.298 6.15903 102.135 5.56639 102.141 4.96348C102.114 4.29101 102.316 3.62913 102.713 3.08546C103.193 2.52131 103.805 2.08372 104.494 1.81131C105.855 1.15144 107.303 0.68854 108.795 0.436567C110.481 0.139556 112.19 -0.00643182 113.902 0.000347739ZM114.036 27.8337C115.416 27.8558 116.794 27.6979 118.134 27.364C119.014 27.1716 119.855 26.8314 120.62 26.3578V17.8398L113.296 18.5778C111.235 18.8019 109.689 19.2602 108.659 19.9525C107.63 20.6448 107.115 21.7067 107.113 23.1382C107.086 23.8077 107.225 24.4736 107.518 25.0764C107.811 25.6792 108.249 26.2001 108.794 26.5925C109.913 27.4198 111.66 27.8333 114.035 27.8331" fill="white" style="mix-blend-mode:screen"/>
<path d="M160 23.675C160 26.6699 158.88 29.0173 156.641 30.717C154.401 32.4168 151.153 33.2664 146.896 33.266C145.275 33.2766 143.656 33.1419 142.058 32.8633C140.749 32.6472 139.473 32.2643 138.261 31.7239C137.33 31.3204 136.495 30.7264 135.808 29.9803C135.252 29.376 134.941 28.5871 134.935 27.7667C134.932 27.107 135.106 26.4585 135.439 25.8887C135.772 25.311 136.246 24.8266 136.817 24.4804C138.182 25.3434 139.621 26.0842 141.117 26.6944C142.913 27.3991 144.832 27.7411 146.762 27.7006C148.778 27.7006 150.323 27.3541 151.399 26.6612C151.91 26.3523 152.329 25.9127 152.612 25.3879C152.896 24.8631 153.034 24.2721 153.011 23.6763C153.033 23.1756 152.945 22.6762 152.753 22.2128C152.562 21.7495 152.271 21.3334 151.902 20.9936C151.163 20.3225 150.077 19.8083 148.643 19.4508L144.073 18.2434C141.026 17.4387 138.786 16.3427 137.354 14.9555C135.922 13.5683 135.205 11.6683 135.204 9.25568C135.196 7.9922 135.472 6.74302 136.01 5.59958C136.562 4.44221 137.379 3.43111 138.396 2.64859C139.572 1.75948 140.906 1.0995 142.327 0.703183C144.075 0.209803 145.886 -0.0269572 147.703 0.000348698C149.178 -0.0111999 150.652 0.112151 152.104 0.368856C153.281 0.57233 154.431 0.90995 155.532 1.37509C156.39 1.72652 157.159 2.26494 157.782 2.95101C158.289 3.50036 158.576 4.21645 158.588 4.96316C158.606 5.60973 158.443 6.24846 158.118 6.80797C157.817 7.30949 157.403 7.73422 156.909 8.04859C155.763 7.40231 154.559 6.86331 153.313 6.43849C151.664 5.8477 149.924 5.55266 148.172 5.56703C146.291 5.56703 144.812 5.89126 143.737 6.53973C143.243 6.80037 142.832 7.19193 142.547 7.67123C142.262 8.15053 142.116 8.69895 142.124 9.25601C142.111 9.66784 142.185 10.0778 142.342 10.4591C142.498 10.8405 142.733 11.1848 143.031 11.4697C143.636 12.0513 144.677 12.5207 146.155 12.8779L150.054 13.8842C153.459 14.7785 155.967 15.9853 157.579 17.5045C159.191 19.0236 159.998 21.0805 159.999 23.675" fill="white" style="mix-blend-mode:screen"/>
</g>
</svg>
