<svg width="49" height="50" viewBox="0 0 49 50" fill="none" xmlns="http://www.w3.org/2000/svg">
<path d="M0 50L0 20L19.5 0H49L0 50Z" fill="#72C240"/>
<path d="M18.8791 11.8556L17.0861 13.6968C16.8001 13.9906 16.6191 14.2051 16.4384 14.448L15.9298 13.9526C16.1468 13.7871 16.3565 13.6004 16.6635 13.2852L17.6262 12.2965C17.2433 12.2168 16.9316 12.1785 16.4578 12.1777L16.7886 11.5227C17.3195 11.5652 17.7092 11.6236 18.1704 11.7377L19.3006 10.5771C19.2873 10.1035 19.2177 9.65891 19.0769 9.17283L19.758 8.80314C19.836 9.3537 19.8614 9.67159 19.8588 10.004L20.8774 8.95801C21.1843 8.64279 21.3653 8.42824 21.5251 8.2069L22.0337 8.70224C21.8097 8.87493 21.5931 9.06874 21.3 9.36964L19.3954 11.3255L19.8396 11.758L21.5 10.0529C21.821 9.72338 21.9394 9.58745 22.0851 9.38044L22.5723 9.85485C22.3834 10.0059 22.2297 10.1493 21.9227 10.4646L20.2623 12.1696L20.7065 12.6022L22.8832 10.367C23.2111 10.0302 23.3783 9.84416 23.5309 9.61584L24.0467 10.1182C23.8016 10.2982 23.62 10.4703 23.313 10.7856L19.8736 14.3175C19.975 14.5 20.0474 14.6264 20.1565 14.8583L23.1635 11.7705C23.3728 11.5556 23.5679 11.3408 23.7767 11.0835C23.985 11.3282 24.107 11.461 24.3505 11.6982L26.3637 13.6586C26.6288 13.9168 26.829 14.0838 27.0718 14.2645L26.5137 14.8376L26.1913 14.5237L23.1913 17.6043L23.5137 17.9182L22.9626 18.4842C22.7827 18.2532 22.6104 18.0575 22.3525 17.8063L21.371 16.8505C21.1561 16.6412 20.8476 16.313 20.6966 16.124C21.1149 17.2712 21.2749 18.1389 21.2462 19.1717C20.9272 19.1123 20.6725 19.1015 20.3831 19.1407C20.4632 18.2557 20.4192 17.5986 20.2254 16.8516C20.0392 16.1398 19.7692 15.514 19.3503 14.8548L18.555 15.6716C18.234 16.0011 18.0877 16.1657 17.9003 16.4299L17.3845 15.9275C17.6087 15.769 17.7972 15.5897 18.1251 15.253L20.1902 13.1324L19.746 12.6998L18.2251 14.2616C17.9181 14.5768 17.7718 14.7414 17.6259 14.9343L17.1387 14.4599C17.3348 14.3158 17.4745 14.1867 17.8024 13.85L19.3233 12.2882L18.8791 11.8556ZM23.691 12.0888L20.691 15.1694L21.1066 15.5741L24.1065 12.4935L23.691 12.0888ZM24.5077 12.8841L21.5078 15.9648L21.9233 16.3694L24.9232 13.2888L24.5077 12.8841ZM25.3244 13.6795L22.3245 16.7601L22.7687 17.1927L25.7686 14.112L25.3244 13.6795Z" fill="#EEEEEE"/>
<path d="M13.5216 19.5783L15.2309 17.823C15.5378 17.5078 15.691 17.3219 15.8297 17.122L16.41 17.6872C16.207 17.8384 16.0533 17.9818 15.7673 18.2756L15.537 18.512L18.5962 21.491C18.9759 21.8608 19.1691 22.035 19.3903 22.1806L18.7763 22.811C18.5965 22.5801 18.4313 22.3913 18.0659 22.0355L15.0068 19.0565L14.0161 20.0738C15.829 21.8672 16.6601 23.2068 16.9205 24.7167C16.5602 24.7427 16.412 24.7659 16.0951 24.862C16.0082 24.1772 15.8023 23.5859 15.4117 22.9264C14.9417 22.1477 14.0658 21.1551 12.3536 19.4877C11.8879 19.0342 11.5802 18.7625 11.3445 18.5888C11.3724 18.5602 11.3934 18.5387 11.4003 18.5315C11.798 18.1231 12.3596 17.2742 12.7522 16.484C12.9381 16.1067 13.0405 15.8296 13.0792 15.5462L13.9919 15.5836C13.9436 15.6762 13.9436 15.6762 13.8339 15.9322C13.4912 16.7571 13.1386 17.3628 12.3753 18.462L13.5216 19.5783ZM11.4717 22.8443L10.6554 23.6825C10.3903 23.9547 10.23 24.1337 10.0982 24.3263L9.53943 23.7822C9.73552 23.6381 9.88222 23.5018 10.1683 23.2081L11.3892 21.9543C11.2039 21.3133 11.0216 20.8985 10.6894 20.3796L11.3424 20.0244C11.5901 20.5727 11.7443 21.002 11.8706 21.46L12.2194 21.1018C12.4985 20.8152 12.6378 20.6578 12.7766 20.458L13.3354 21.0021C13.1114 21.1748 12.9717 21.304 12.7066 21.5762L11.988 22.3141C12.067 22.405 12.1028 22.4399 12.1529 22.4887L12.6974 23.019L13.3951 22.3025C13.6532 22.0375 13.7856 21.8872 13.9381 21.6589L14.4898 22.1961C14.2867 22.3473 14.147 22.4764 13.8679 22.763L13.3237 23.3218C13.8481 23.3997 14.2932 23.3726 15.0546 23.1928C15.101 23.4892 15.1454 23.6442 15.2482 23.9257C14.3794 24.0008 14.1459 23.9969 13.5077 23.8639C13.8654 24.1703 13.9655 24.2538 14.1446 24.4282L15.0903 25.3492C15.3339 25.5864 15.5128 25.7466 15.7341 25.9064L15.162 26.4938C15.0108 26.2907 14.8385 26.095 14.6021 25.8648L13.6707 24.9578C13.506 24.7974 13.3553 24.6367 13.1327 24.378C13.442 25.3074 13.5091 26.0985 13.3678 27.1753C13.0835 27.0659 12.8493 27.0054 12.5874 26.9876C12.707 26.4062 12.7428 25.9107 12.7071 25.3454C12.6801 24.9144 12.6347 24.6887 12.4865 24.1815L11.8517 24.8335C11.5587 25.1344 11.4472 25.2631 11.2945 25.4773L10.7428 24.9401C10.9531 24.7959 11.0928 24.6667 11.3928 24.3587L12.2021 23.5276L11.6576 22.9974C11.6003 22.9416 11.5575 22.9139 11.4717 22.8443ZM9.83814 20.1787L10.4381 19.5626C10.7381 19.2545 10.8635 19.1114 11.0093 18.9044L11.5681 19.4486C11.3371 19.6284 11.2044 19.7504 10.9183 20.0442L9.1323 21.8782C8.83928 22.1791 8.71389 22.3222 8.55417 22.5435L7.99536 21.9994C8.17751 21.8697 8.33816 21.719 8.65908 21.3895L9.30791 20.7232L9.14313 20.5627C8.90671 20.3325 8.79944 20.242 8.59959 20.1032L9.19958 19.4871C9.32213 19.6622 9.42261 19.7741 9.6662 20.0113L9.83814 20.1787ZM10.7281 22.2318L10.4392 22.8438C9.89793 22.554 9.60645 22.4377 9.13095 22.3096L9.41984 21.6976C9.95228 21.8532 10.2296 21.9697 10.7281 22.2318Z" fill="#EEEEEE"/>
</svg>
