<svg width="620" height="236" viewBox="0 0 620 236" fill="none" xmlns="http://www.w3.org/2000/svg">
<path d="M0.946777 234V2.55371H27.5479L43.9829 136.067V2.55371H66.3481V234H38.7305L24.3286 118.277L24.6675 234H0.946777ZM138.01 32.2046V204.857C138.01 214.007 136.542 220.671 133.605 224.851C128.183 232.193 119.994 235.864 109.037 235.864C99.3229 235.864 92.1502 233.153 87.519 227.731C83.0008 222.309 80.7417 213.837 80.7417 202.316V38.8125C80.7417 27.291 82.2101 18.8758 85.147 13.5669C90.3429 4.64339 98.5887 0.181641 109.884 0.181641C119.147 0.181641 126.15 2.89258 130.894 8.31445C135.638 13.7363 138.01 21.6997 138.01 32.2046ZM104.971 32.8823V204.519C104.971 209.602 106.552 212.143 109.715 212.143C112.878 212.143 114.459 209.432 114.459 204.01V33.0518C114.459 29.5501 114.12 27.2345 113.442 26.105C112.878 24.9754 111.635 24.4106 109.715 24.4106C107.795 24.4106 106.496 24.9754 105.818 26.105C105.253 27.2345 104.971 29.4937 104.971 32.8823ZM152.404 234V2.55371H180.53C189.453 2.55371 196.344 4.69987 201.201 8.99219C206.058 13.2845 208.486 19.3841 208.486 27.291V104.722C208.486 109.127 207.526 113.363 205.606 117.43C203.799 121.383 201.427 124.207 198.49 125.901C205.832 129.177 209.503 136.406 209.503 147.589V234H184.257V143.014C184.257 139.287 182.676 137.423 179.513 137.423H177.311V234H152.404ZM177.311 26.105V114.719C178.101 114.832 178.948 114.888 179.852 114.888C181.659 114.888 182.789 114.493 183.241 113.702C183.806 112.911 184.144 111.104 184.257 108.28V33.3906C184.257 30.3408 183.918 28.3641 183.241 27.4604C182.676 26.5568 181.377 26.105 179.344 26.105H177.311ZM237.621 2.55371H275.065L295.397 234H268.966L265.747 189.27H250.667L248.295 234H222.372L237.621 2.55371ZM264.391 164.702L257.105 56.603L251.684 164.702H264.391ZM363.671 75.749H338.764V32.7129C338.877 29.4372 338.651 27.291 338.086 26.2744C337.522 25.2578 336.392 24.7495 334.698 24.7495C333.116 24.7495 332.1 25.0884 331.648 25.7661C331.309 26.4438 331.14 28.1382 331.14 30.8491V98.792C331.14 101.39 331.366 103.084 331.817 103.875C332.382 104.553 333.625 104.892 335.545 104.892H344.355C358.023 105.005 364.518 112.121 363.84 126.24V204.688C363.84 225.472 354.126 235.864 334.698 235.864C326.226 235.864 319.392 233.379 314.196 228.409C309.113 223.439 306.572 216.831 306.572 208.585V159.958H331.309V203.333C331.309 206.382 331.535 208.359 331.987 209.263C332.439 210.166 333.512 210.618 335.206 210.618C336.674 210.618 337.635 210.166 338.086 209.263C338.538 208.246 338.764 206.213 338.764 203.163V137.084C338.764 133.356 338.369 131.097 337.578 130.307C336.787 129.516 334.698 129.121 331.309 129.121H325.718C312.276 129.121 305.555 122.682 305.555 109.805V32.8823C305.555 22.9422 307.475 15.5436 311.316 10.6865C316.625 3.68327 324.249 0.181641 334.189 0.181641C343.339 0.181641 350.512 2.94906 355.708 8.48389C361.016 14.0187 363.671 21.5868 363.671 31.188V75.749ZM401.099 2.55371H426.514V234H401.099V2.55371ZM440.908 234V2.55371H467.509L483.944 136.067V2.55371H506.309V234H478.691L464.29 118.277L464.628 234H440.908ZM577.463 76.5962H553.573V31.5269C553.573 28.59 553.29 26.6698 552.726 25.7661C552.274 24.8625 551.144 24.4106 549.337 24.4106C546.513 24.4106 545.101 26.5003 545.101 30.6797V203.502C545.101 206.665 545.383 208.754 545.948 209.771C546.513 210.675 547.643 211.126 549.337 211.126C552.048 211.126 553.403 209.15 553.403 205.196V159.28H577.293V205.874C577.293 213.555 575.656 219.711 572.38 224.342C566.958 232.023 558.995 235.864 548.49 235.864C540.018 235.864 533.241 233.548 528.158 228.917C523.188 224.173 520.703 217.791 520.703 209.771V33.3906C520.703 11.2513 530.078 0.181641 548.829 0.181641C557.413 0.181641 564.304 2.44076 569.5 6.95898C574.808 11.3643 577.463 17.238 577.463 24.5801V76.5962ZM605.072 203.502C609.365 203.502 612.923 204.97 615.747 207.907C618.57 210.731 619.982 214.346 619.982 218.751C619.982 222.93 618.514 226.488 615.577 229.425C612.64 232.475 609.139 234 605.072 234C600.893 234 597.335 232.532 594.398 229.595C591.461 226.545 589.993 222.874 589.993 218.582C589.993 214.176 591.405 210.562 594.229 207.738C597.052 204.914 600.667 203.502 605.072 203.502Z" fill="black"/>
</svg>
